<?xml version="1.0" encoding="UTF-8"?><svg id="Layer_1" xmlns="http://www.w3.org/2000/svg" xmlns:xlink="http://www.w3.org/1999/xlink" viewBox="0 0 43.77 43.8"><defs><style>.cls-1{fill:url(#linear-gradient);}.cls-2{fill:#fff;}</style><linearGradient id="linear-gradient" x1="0" y1="21.37" x2="43.77" y2="21.37" gradientUnits="userSpaceOnUse"><stop offset="0" stop-color="#c766ff"/><stop offset="1" stop-color="#9932d5"/></linearGradient></defs><circle class="cls-2" cx="21.89" cy="22.24" r="21.56"/><g id="Group_7"><g id="Group_6"><path id="Path_13" class="cls-1" d="M25.96,31.59c.87-.17,1.74-.3,2.59-.5,1.72-.35,3.3-1.17,4.59-2.36.98-.95,1.71-2.14,2.11-3.45.57-1.79.77-3.69.59-5.56-.16-1.72-.86-3.34-2-4.63-.13-.12-.17-.31-.1-.47.46-1.47.48-3.04.04-4.52-.08-.28-.19-.55-.27-.83-.05-.19-.17-.22-.33-.23-.5-.02-1.01.04-1.49.18-1.21.35-2.36.88-3.41,1.56-.24.15-.48.32-.73.46-.09.05-.19.07-.29.05-1.14-.3-2.3-.5-3.47-.61-2.4-.21-4.82,0-7.16.61-.1.02-.21,0-.31-.05-1.09-.74-2.26-1.35-3.5-1.81-.62-.24-1.28-.36-1.95-.38-.09,0-.19,0-.28.02-.08.02-.14.07-.18.15-.71,1.71-.81,3.61-.28,5.39.01.05.03.1.05.14.07.11.02.19-.06.28-.9,1.01-1.54,2.23-1.87,3.54-.2.83-.28,1.69-.25,2.55,0,1.43.22,2.85.65,4.22.77,2.45,2.64,4.39,5.05,5.26,1.24.47,2.53.78,3.85.92.12.01.23.03.38.05-.09.09-.16.17-.23.24-.61.7-1,1.57-1.12,2.5,0,.12-.09.22-.2.26-1,.46-2.11.6-3.19.42-1.09-.22-2.06-.86-2.68-1.78-.34-.46-.64-.95-1.01-1.38-.51-.63-1.2-1.08-1.98-1.3-.42-.11-.87-.12-1.29-.02-.44.1-.55.37-.24.7.2.23.44.42.7.58.47.29.87.67,1.19,1.12.53.71.96,1.48,1.3,2.3.46,1.14,1.44,1.99,2.63,2.3.92.27,1.87.36,2.82.27.59-.04,1.18-.12,1.8-.19,0,.04.01.1.01.16.01,1.24.02,2.49.03,3.73.07.62-.37,1.19-1,1.26-.21.03-.43-.01-.62-.1-2.18-.73-4.24-1.81-6.08-3.2C2.65,34.85-.64,27.42.1,19.81.97,10.76,7.35,3.18,16.12.78c11.66-3.19,23.69,3.68,26.88,15.33.6,2.19.85,4.46.75,6.73-.11,2.91-.82,5.77-2.07,8.4-1.68,3.57-4.3,6.62-7.57,8.82-1.58,1.08-3.31,1.93-5.13,2.54-.23.07-.46.1-.7.07-.56-.04-.97-.53-.93-1.09,0-.58,0-1.16.01-1.74,0-1.39.02-2.79.02-4.18.03-.94-.14-1.88-.5-2.75-.2-.48-.5-.91-.86-1.27-.03-.02-.05-.05-.07-.07"/></g></g></svg>