<?xml version="1.0" encoding="UTF-8"?><svg id="Layer_1" xmlns="http://www.w3.org/2000/svg" xmlns:xlink="http://www.w3.org/1999/xlink" viewBox="0 0 43.78 43.78"><defs><style>.cls-1{fill:url(#linear-gradient);}.cls-2{fill:#fff;}</style><linearGradient id="linear-gradient" x1="0" y1="21.89" x2="43.78" y2="21.89" gradientUnits="userSpaceOnUse"><stop offset="0" stop-color="#c766ff"/><stop offset="1" stop-color="#9932d5"/></linearGradient></defs><circle class="cls-2" cx="21.89" cy="21.89" r="21.56"/><g id="Group_5"><g id="Group_4"><path id="Path_12" class="cls-1" d="M21.85,0C9.76.02-.02,9.84,0,21.93c.02,12.09,9.84,21.87,21.93,21.85,11.95-.02,21.68-9.63,21.85-21.58C43.93,10.09,34.23.15,22.12,0c-.09,0-.18,0-.27,0M14.41,35.02c-1.67,0-3.33,0-4.99,0-.18,0-.22-.07-.22-.23,0-.77,0-1.55,0-2.32v-6.2h0v-8.5c0-.17.04-.23.22-.23,1.65,0,3.3,0,4.95,0,.18,0,.23.05.23.23,0,5.39,0,10.77,0,16.16,0,.29,0,.58,0,.87,0,.15-.04.21-.2.21M11.88,14.95c-1.71,0-3.09-1.4-3.08-3.12,0-1.71,1.4-3.09,3.12-3.08,1.71,0,3.09,1.4,3.08,3.12,0,0,0,0,0,.01-.02,1.71-1.41,3.08-3.11,3.07M34.98,34.72q0,.3-.31.3h-4.71c-.27,0-.27,0-.27-.28,0-3.08,0-6.16,0-9.24.02-.65-.12-1.29-.42-1.86-.35-.66-.96-1.14-1.68-1.35-.98-.3-2.04-.22-2.96.25-.74.4-1.29,1.08-1.52,1.88-.16.46-.24.94-.23,1.42,0,2.94,0,5.88,0,8.82,0,.41.04.36-.37.36h-4.66c-.18,0-.24-.05-.24-.23v-17c0-.23.01-.24.24-.24h4.45c.26,0,.27,0,.27.27,0,.65,0,1.3,0,1.95,0,.06,0,.12.01.18l.08.05s.04-.09.07-.13c1.3-1.61,3.23-2.57,5.3-2.63,1.04-.08,2.09.1,3.05.52,1.05.41,1.95,1.11,2.6,2.03.84,1.22,1.3,2.66,1.33,4.15,0,3.59,0,7.19,0,10.78"/></g></g></svg>