<?xml version="1.0" encoding="UTF-8"?><svg id="Layer_1" xmlns="http://www.w3.org/2000/svg" viewBox="0 0 150 150"><defs><style>.cls-1{fill:#fff;}</style></defs><path class="cls-1" d="M135.84,98.29c0,1.44-.16,2.87-.49,4.27-.07.3-.14.6-.22.9-1.19,4.59-3.09,8.8-6.55,12.16-.39.38-.84.74-1.32.98-.25.13-.72.08-.95-.08-.18-.12-.24-.58-.18-.85.11-.5.35-.96.53-1.44,1.33-3.47,2.71-6.92,3.33-10.61.52-3.07-.31-4.14-3.42-4.44-4.01-.39-7.98.16-11.95.55-.27.03-.56.09-.82.06-.76-.09-1.04-.64-.56-1.25.33-.42.79-.77,1.25-1.06,2.66-1.68,5.61-2.52,8.69-2.95,3.36-.47,6.71-.43,10.02.37h.03c1.53.38,2.6,1.75,2.6,3.32v.06Z"/><path class="cls-1" d="M76.52,58.09c-.88,3.66-1.69,7.07-2.5,10.47-1.2,5-2.38,10.01-3.58,15.01-.48,1.98-.9,2.3-2.95,2.31-.95,0-1.9,0-2.85,0-1.53-.01-2.04-.35-2.52-1.83-.81-2.52-1.57-5.07-2.34-7.6-2.36-7.76-4.71-15.52-7.06-23.29-.17-.57-.34-1.14-.46-1.72-.22-1.08.1-1.49,1.18-1.51,1.19-.02,2.38-.01,3.57,0,1.58.01,2.06.32,2.48,1.83.61,2.17,1.13,4.37,1.69,6.55,1.69,6.63,3.37,13.27,5.12,20.17.16-.58.26-.91.34-1.24,1.96-8.32,3.92-16.64,5.89-24.96.49-2.07.86-2.35,3.02-2.35.87,0,1.74,0,2.62,0,1.63.02,2.12.38,2.5,1.95.73,3.04,1.44,6.09,2.16,9.13,1.36,5.78,2.73,11.55,4.34,17.39.13-.45.26-.89.38-1.34,2.13-8.24,4.26-16.47,6.39-24.71.1-.38.22-.76.36-1.13.31-.83.93-1.27,1.81-1.27,1.35-.01,2.7-.03,4.04,0,.85.02,1.15.36,1.07,1.19-.04.47-.16.94-.3,1.39-3.23,10.39-6.47,20.78-9.72,31.16-.62,2-.96,2.23-3.05,2.24-.95,0-1.9.01-2.85,0-1.61-.03-2.09-.41-2.47-1.99-.66-2.69-1.29-5.39-1.94-8.08-1.35-5.62-2.7-11.24-4.05-16.85-.05-.22-.15-.43-.31-.9Z"/><path class="cls-1" d="M73.07,121.75c-20.98-.33-40.86-7.58-57.85-22.44-.3-.26-.68-.5-.83-.83-.17-.39-.33-1.04-.13-1.27.26-.3.87-.42,1.32-.41.36,0,.72.3,1.06.49,7.39,4.21,15.15,7.55,23.27,10.07,7.2,2.23,14.54,3.81,22.03,4.69,7.22.85,14.46,1.14,21.71.63,9.76-.68,19.31-2.48,28.62-5.51,3.19-1.04,6.31-2.32,9.48-3.45.61-.22,1.32-.43,1.93-.33,1.44.22,1.91,1.68.97,2.79-.3.36-.7.64-1.09.91-7.5,5.37-15.86,8.89-24.7,11.32-7.94,2.19-16.05,3.29-25.79,3.34Z"/><path class="cls-1" d="M41.75,65.77c-.14-2.11-.12-4.06-.42-5.96-.48-3.1-2.34-4.64-5.55-5.11-3.77-.54-7.32.26-10.82,1.51-.67.24-1.32.53-2,.73-.95.28-1.4,0-1.47-.93-.07-.91-.04-1.82,0-2.73.04-.9.65-1.38,1.41-1.75,3.03-1.49,6.23-2.4,9.58-2.51,2.32-.07,4.7.02,6.96.47,5.11,1,8.04,4.36,8.66,9.54.15,1.29.22,2.6.23,3.91.05,4.28.06,8.56.09,12.83.01,2.07.64,3.96,1.59,5.78.7,1.34.56,1.81-.69,2.68-.71.5-1.44.99-2.18,1.44-1.03.63-1.72.55-2.5-.39-.65-.79-1.2-1.67-1.76-2.53-.28-.42-.49-.89-.83-1.53-.44.49-.78.92-1.17,1.29-3.87,3.7-8.49,5-13.68,3.98-5.84-1.15-8.65-6.09-8.05-11.79.63-6.04,5.34-8.98,9.71-9.79,3.85-.71,7.65-.24,11.44.55.38.08.77.16,1.46.3ZM36.85,69.62c-1.35-.19-2.71-.24-4.07-.13-.03,0-.05,0-.08,0-4.47.34-6.79,2.83-6.48,6.92.23,2.97,1.95,4.72,4.89,4.97,2.01.17,3.96-.15,5.78-1,2.51-1.17,4.25-3.01,4.59-5.89.13-1.1.11-2.21.2-3.31.05-.64-.21-.93-.84-1.01-1.33-.17-2.66-.36-3.98-.55Z"/><path class="cls-1" d="M116.62,86.99c-3.57-.1-6.68-.61-9.66-1.77-.62-.24-1.22-.56-1.8-.9-.65-.39-1.03-.99-1.04-1.76-.02-.87-.05-1.74.02-2.61.07-.81.53-1.11,1.31-.93.46.1.91.29,1.34.48,3.45,1.5,7.05,2.11,10.78,1.8,1.28-.11,2.58-.45,3.77-.94,1.76-.73,2.67-2.16,2.68-4.11,0-1.9-.96-3.21-2.63-3.87-2.31-.92-4.71-1.62-7.05-2.45-1.38-.49-2.79-.92-4.09-1.57-3.56-1.76-5.59-4.66-5.74-8.64-.15-4.04,1.92-6.91,5.29-8.91,2.16-1.28,4.54-1.82,7.02-1.93,3.29-.15,6.48.36,9.54,1.56,2.26.89,3.17,3.07,2.33,5.35-.23.62-.71.73-1.25.58-.53-.14-1.04-.38-1.55-.58-3.43-1.39-6.97-1.72-10.6-1.07-.5.09-.99.27-1.46.47-1.46.63-2.35,1.68-2.51,3.31-.17,1.75.41,3.16,1.95,4.01,1.2.66,2.49,1.21,3.79,1.67,1.93.69,3.91,1.26,5.87,1.91.71.24,1.41.52,2.1.82,7.31,3.17,7.27,12.01,2.46,16.35-2.43,2.19-5.37,3.12-8.51,3.56-.9.12-1.82.14-2.35.18Z"/></svg>