<?xml version="1.0" encoding="UTF-8"?><svg id="Layer_1" xmlns="http://www.w3.org/2000/svg" viewBox="0 0 150 150"><defs><style>.cls-1{fill:#fff;}</style></defs><g id="_x37_CyoM3"><path class="cls-1" d="M84.63,110.47c-11.5,1.9-22.73,3.62-34.2,1.27-16.76-3.43-22.79-15.44-21.7-30.58,1.44-20.09,17.89-29.04,35.97-26.62.57.08,1.12.23,2.12.44v-26.76h17.82v82.26ZM66.96,98.09c0-9.29.04-18-.07-26.7,0-.77-.87-1.97-1.59-2.22-8.43-2.87-16.83,2.3-18.01,11.15-.34,2.53-.27,5.18.09,7.71.81,5.59,4.72,9.39,10.33,10.01,2.89.32,5.84.06,9.24.06Z"/><path class="cls-1" d="M77.43,128.73c14.33-5.18,17.61-16.01,17.59-28.84-.02-13.32.13-26.64.21-39.96,0-1.38,0-2.75,0-4.32h17.48c.19.37.39.57.39.77-.21,18.61,0,37.24-.83,55.83-.47,10.51-6.04,18.68-15.77,23.47-1.02.5-2.57.86-3.51.44-4.94-2.17-9.76-4.6-15.57-7.4Z"/><path class="cls-1" d="M95.44,46.13v-17.83h17.56v17.83h-17.56Z"/></g></svg>