<?xml version="1.0" encoding="UTF-8"?><svg id="Layer_1" xmlns="http://www.w3.org/2000/svg" viewBox="0 0 150 150"><defs><style>.cls-1{fill:#fff;}</style></defs><path class="cls-1" d="M68.58,57.66c-.73.33-1.45.67-2.18.99-11.99,5.37-23.97,10.74-35.96,16.11-4.24,1.9-4.5,1.85-6.22-2.53-1.29-3.29-2.32-6.68-3.44-10.04-.48-1.42-.84-2.8-2.72-3.13-.64-.11-1.27-.94-1.67-1.6-1.11-1.86-2.16-3.76-3.11-5.71-.84-1.71-.52-2.72,1.08-3.79.75-.5,1.6-.89,2.43-1.24,15.65-6.7,31.29-13.4,46.94-20.09.42-.18.83-.39,1.27-.53,1.99-.63,2.79-.15,3.07,1.87.13.9.17,1.82.24,2.73.56,7.52,1.11,15.03,1.66,22.55.04,0,.08,0,.11,0,.05.57.1,1.14.15,1.7.12,1.31-.47,2.18-1.65,2.7Z"/><path class="cls-1" d="M75.6,77.42c-.3.46-.57,1.12-1.04,1.5-.61.5-1.39.79-2.1,1.16-10.09,5.14-20.17,10.29-30.26,15.42-3.59,1.82-3.75,1.81-6.04-1.56-1.67-2.45-3.27-4.96-4.78-7.53-1.72-2.92-1.58-3.22,1.37-4.61,1.14-.54,2.29-1.04,3.44-1.56,10.54-4.71,21.08-9.44,31.62-14.14,4.01-1.8,4.08-1.76,5.3,2.53.62,2.2,1.25,4.4,1.87,6.6.19.65.37,1.31.62,2.17Z"/><path class="cls-1" d="M135.77,113.13c-.69.4-1.49.61-2.17,1.02-.85.52-1.7,1.09-2.42,1.79-1.92,1.85-3.88,3.01-6.7,1.76-.79-.35-2-.02-2.93.26-3.5,1.04-6.95,2.28-10.45,3.3-9.34,2.69-18.89,3.48-28.52,2.45-11.17-1.19-21.21-5.4-30.05-12.33-2.6-2.04-4.99-4.36-7.38-6.65-1.22-1.17-1.05-1.77.39-2.63.59-.36,1.21-.66,1.82-.97,9.37-4.77,18.74-9.54,28.11-14.29.91-.46,1.85-.87,2.85-1.34.43.24.91.36,1.17.67.5.62.87,1.34,1.32,2,1.62,2.34,3.1,4.81,4.94,6.99,8.95,10.6,20.47,15.34,34.27,14.66,1.27-.06,2.43-.18,3.2-1.51.8-1.38,2.32-1.75,3.81-2.01,1.56-.29,3.14-.5,4.67-.88,1.13-.29,2.07-.15,2.74.8.85,1.21,1.71,2.44,2.39,3.75.69,1.35.3,2.35-1.07,3.16Z"/></svg>