<?xml version="1.0" encoding="UTF-8"?><svg id="Layer_1" xmlns="http://www.w3.org/2000/svg" viewBox="0 0 150 150"><defs><style>.cls-1{fill:#fff;}</style></defs><path class="cls-1" d="M110.37,60.53c-2.53,1.98-5.51,2.63-8.63,2.87-.93.07-1.87.09-3.06.15.92,2.75,1.77,5.28,2.67,7.98-1.41.11-2.55.21-3.95.32,1.19,2.6,2.3,5.04,3.47,7.61-1.09.12-1.94.22-3.09.35.95,2.45,1.85,4.78,2.83,7.32-1.11.19-1.94.34-3.08.54,1.27,2.65,2.5,5.23,3.83,8-.8.04-1.29.08-1.78.07-.49-.01-.98-.1-1.95-.2,1.41,2.73,2.65,5.13,3.99,7.73-1.19.12-2.11.21-3.2.32.85,2.52,1.66,4.92,2.53,7.48-1.09.14-1.94.25-2.99.39,1.08,2.58,2.11,5.05,3.23,7.71-1.18.12-2.1.21-3.22.32-.18,1.43-.37,2.85-.55,4.27-.45,3.7-2.57,6.02-6.19,6.75-2.56.52-6.14-1.16-7.34-3.78-.78-1.7-1.06-3.62-1.53-5.46-.14-.55-.14-1.14-.21-1.81-1.07-.11-2.07-.22-3.35-.35.5-1.29.95-2.42,1.39-3.56.44-1.14.88-2.29,1.36-3.54-.95-.29-1.7-.53-2.75-.85.86-2.52,1.7-4.97,2.54-7.43-1.75-.48-13.64-.55-16.02-.08,1.08,2.42,2.13,4.8,3.34,7.51-1.36.13-2.47.23-3.83.37,1.29,2.71,2.49,5.26,3.81,8.04-1.34.08-2.41.15-3.79.23-.15,1.35-.3,2.7-.44,4.05-.51,5.15-5.34,8.22-10,6.38-2.54-1-3.95-2.99-4.58-5.53-.38-1.54-.5-3.15-.77-4.9-1.12-.11-2.26-.22-3.67-.37.46-2.63,1.91-4.8,2.6-7.39-.87-.23-1.67-.44-2.75-.73.88-2.57,1.72-5.03,2.61-7.66-.64-.2-1.22-.37-1.99-.61,1.18-2.46,2.31-4.81,3.52-7.33-1.23-.24-2.25-.44-3.63-.7,1.61-2.86,3.08-5.49,4.62-8.24-.79-.08-1.5-.15-2.56-.26,1.1-2.27,2.12-4.4,3.17-6.57-3.38-.08-6.06,3.19-7.53,9.06-.31.07-.66.2-1,.21-1.58.02-1.95-.36-1.83-1.97.26-3.46,1.63-6.36,4.47-8.46.58-.43,1.17-.84,1.79-1.28-2.63-1.64-4.28-1.36-7.64,1.37-.58-.53-1.19-1.09-1.87-1.71,1.22-1.99,2.86-3.22,5-3.36,2-.14,4.02.14,6,.24-.83-3.23-2.44-4.32-7.99-5.14.06-.88.13-1.78.19-2.64,4.27-.77,8.53,1.3,10.13,5.03.69,1.59,1.01,3.35,1.38,5.06.17.81.36,1.38,1.28,1.49,4.35.54,8.69,1.11,13.04,1.66.07,0,.14-.04.51-.17.93-2.29,1.94-4.77,3.04-7.47-1.13-.11-2.03-.21-3.19-.33,1.07-2.68,2.09-5.22,3.22-8.07-1.28-.07-2.33-.13-3.7-.21,1.45-3.05,2.81-5.9,4.25-8.96-1.23-.12-2.16-.21-3.21-.3.06-.33.04-.62.15-.86,4.53-9.36,9.05-18.73,13.65-28.07.7-1.43,1.71-2.73,2.68-4.01,1.12-1.47,2.68-2.07,4.48-1.62,1.7.43,2.4,1.8,2.64,3.42.15,1.01.25,2.02.41,3.35.61-.36,1.1-.68,1.63-.96,1.61-.86,3.19-1.79,4.85-2.53,1.55-.7,3.04-.32,4.25.86,1.12,1.09,1.27,2.5.79,3.88-.53,1.51-1.11,3.05-1.97,4.39-2.36,3.7-4.88,7.31-7.35,10.95-.4.6-.82,1.2-1.5,2.2,2.89.62,5.44,1.2,8,1.69,3.29.63,6.4,1.71,9.02,3.81,1.11.89,2.15,2.03,2.84,3.26,1.4,2.53.76,5.02-1.53,6.82Z"/></svg>