<?xml version="1.0" encoding="UTF-8"?><svg id="Layer_1" xmlns="http://www.w3.org/2000/svg" viewBox="0 0 150 150"><defs><style>.cls-1{fill:#fff;}</style></defs><g id="Z3vns5"><path class="cls-1" d="M48.61,20.76c1.47,0,2.93,0,4.4,0,.13.04.26.1.4.12,3.48.59,6.62,2.02,9.62,3.8,4.19,2.48,7.9,5.56,11.42,8.9.57.54.55.51,1.15,0,2.5-2.13,4.95-4.34,7.56-6.33,3.35-2.57,7.02-4.62,11.11-5.82.91-.27,1.85-.45,2.77-.67,1.47,0,2.93,0,4.4,0,.21.06.42.12.63.17,1.81.41,3.45,1.15,4.9,2.33,2.06,1.69,3.37,3.87,4.22,6.35,1.59,4.64,1.69,9.43,1.1,14.22-.41,3.36-1.13,6.68-1.74,10.01-.09.51,0,.74.51.9,1.89.59,3.79,1.18,5.64,1.87,4.43,1.63,8.66,3.65,12.4,6.58,2.03,1.59,3.82,3.4,5.1,5.66,1.34,2.36,1.98,4.87,1.6,7.59-.31,2.25-1.23,4.25-2.56,6.07-1.9,2.58-4.36,4.53-7.05,6.21-4.54,2.84-9.5,4.72-14.6,6.27-1.3.4-1.24.19-.92,1.55,1.28,5.52,2.17,11.08,1.83,16.78-.18,3.01-.74,5.93-2.01,8.69-2.33,5.06-7.17,7.76-12.71,7.13-3.02-.34-5.82-1.35-8.5-2.71-5.09-2.59-9.45-6.15-13.57-10.05-.67-.63-.66-.64-1.32-.01-3.62,3.44-7.45,6.6-11.79,9.09-2.97,1.71-6.08,3.08-9.52,3.58-3.16.46-6.17.08-8.92-1.66-2.54-1.61-4.13-3.96-5.15-6.72-1.58-4.32-1.73-8.8-1.38-13.32.29-3.78.96-7.5,1.85-11.19.19-.81.17-.79-.64-1.07-2.55-.88-5.13-1.68-7.63-2.68-4.43-1.76-8.59-4.01-12.09-7.32-2.42-2.28-4.22-4.94-4.81-8.28-.06-.33-.13-.66-.19-.99,0-.59,0-1.19,0-1.78.04-.17.1-.34.12-.51.3-2.32,1.24-4.37,2.63-6.23,1.93-2.58,4.4-4.54,7.12-6.22,4.52-2.79,9.44-4.68,14.5-6.19,1.32-.39,1.19-.26.89-1.57-1.27-5.48-2.16-11-1.83-16.66.15-2.53.54-5,1.43-7.38,1.16-3.1,2.96-5.72,6-7.23,1.14-.57,2.42-.86,3.63-1.28ZM74.98,94.65c3.51-.15,6.99-.31,10.47-.45.48-.02.8-.23,1.06-.63,3.86-5.77,7.35-11.77,10.39-18.01.21-.44.22-.8,0-1.23-1.02-1.95-1.93-3.96-3.04-5.86-2.4-4.08-4.9-8.1-7.36-12.15-.25-.41-.58-.61-1.06-.63-1.46-.06-2.93-.17-4.39-.23-5.49-.21-10.98-.19-16.46.23-.46.04-.77.2-1.02.58-3.91,5.79-7.4,11.83-10.45,18.11-.19.4-.19.74,0,1.12,1.01,1.95,1.93,3.96,3.04,5.86,2.39,4.07,4.87,8.07,7.31,12.11.28.46.63.7,1.19.72,3.44.13,6.89.3,10.32.45ZM130.66,74.95c-.05-1.84-.79-3.37-1.88-4.76-1.4-1.79-3.15-3.17-5.05-4.38-4.37-2.78-9.17-4.57-14.11-6.04-.58-.18-.78.08-.93.57-1.51,4.77-3.34,9.41-5.41,13.96-.21.46-.2.84,0,1.29,2.07,4.57,3.92,9.23,5.42,14.02.17.55.46.66.97.49,1.09-.36,2.2-.68,3.28-1.05,3.97-1.36,7.81-2.99,11.31-5.34,1.87-1.26,3.59-2.68,4.9-4.55.89-1.28,1.46-2.67,1.49-4.22ZM42.66,110.73c.08,1.23.11,2.45.24,3.68.2,1.96.62,3.88,1.53,5.65,1.5,2.92,4.03,4.25,7.29,3.89,2.55-.28,4.88-1.2,7.11-2.39,4.52-2.4,8.41-5.65,12.12-9.14.32-.3.32-.53.02-.84-3.45-3.73-6.59-7.71-9.55-11.84-.28-.39-.6-.57-1.08-.62-4.95-.51-9.87-1.21-14.74-2.29-.85-.19-.87-.17-1.08.69-1.04,4.35-1.8,8.73-1.87,13.22ZM42.72,37.93c.01,5.4.68,9.54,1.63,13.64.39,1.69.4,1.67,2.09,1.31,4.62-.99,9.29-1.61,13.98-2.14.34-.04.74-.29.96-.56.75-.92,1.38-1.94,2.14-2.85,2.47-3.02,4.97-6.02,7.47-9.02.25-.29.31-.5,0-.8-3.02-2.88-6.19-5.56-9.73-7.79-2.72-1.71-5.56-3.14-8.77-3.69-4.03-.69-6.84.85-8.42,4.61-1.13,2.71-1.31,5.57-1.34,7.28ZM19.37,74.97c.06,1.77.77,3.29,1.84,4.67,1.29,1.66,2.89,2.98,4.64,4.13,4.52,2.97,9.52,4.84,14.67,6.36.51.15.67-.12.8-.53,1.53-4.82,3.39-9.52,5.48-14.12.18-.4.16-.74-.02-1.13-.51-1.12-1.04-2.23-1.47-3.38-1.34-3.54-2.65-7.09-3.96-10.63-.16-.42-.27-.77-.86-.59-4.7,1.41-9.29,3.08-13.51,5.65-2.14,1.31-4.14,2.79-5.71,4.78-1.1,1.4-1.85,2.95-1.89,4.78ZM107.29,111.28c.02-5.07-.79-9.55-1.84-13.99-.12-.51-.38-.61-.86-.5-4.9,1.09-9.86,1.81-14.85,2.31-.55.05-.9.28-1.21.72-2.74,3.84-5.68,7.53-8.82,11.05-1.02,1.14-1.01,1.16.11,2.21,3.39,3.19,6.99,6.1,11.1,8.33,2.38,1.29,4.87,2.32,7.61,2.56,2.42.21,4.57-.42,6.07-2.42.73-.98,1.29-2.14,1.71-3.3.86-2.39,1.04-4.91.99-6.96ZM107.27,39.08c0-.69.03-1.39,0-2.08-.12-2.31-.48-4.57-1.44-6.7-.99-2.19-2.51-3.85-4.98-4.24-1.09-.17-2.26-.14-3.36.02-2.59.37-4.93,1.47-7.18,2.75-4.17,2.37-7.8,5.42-11.27,8.7-.32.31-.21.53.04.8.8.88,1.62,1.74,2.36,2.67,2.4,3.03,4.78,6.07,7.14,9.13.3.39.62.62,1.12.66,1.16.1,2.33.2,3.48.39,3.81.62,7.62,1.28,11.43,1.93.43.07.71.06.83-.45,1.06-4.46,1.88-8.96,1.83-13.57ZM81.99,50.15c-.14-.24-.2-.4-.31-.53-2.08-2.5-4.16-4.99-6.24-7.49-.33-.4-.58-.35-.89.03-2.06,2.49-4.13,4.96-6.2,7.44-.13.15-.22.34-.34.55h13.97ZM82,99.74h-13.96c.14.23.21.41.33.55,2.08,2.49,4.16,4.98,6.23,7.48.32.38.55.34.84-.02,2.03-2.45,4.08-4.89,6.12-7.34.15-.17.25-.38.44-.66ZM100,81.29c-2.35,4.07-4.65,8.06-6.99,12.11.21,0,.34.02.47,0,3.18-.54,6.37-1.08,9.55-1.63.77-.14.82-.23.56-.95-1.09-3-2.2-5.99-3.31-8.98-.06-.17-.17-.33-.28-.55ZM100,68.6c.12-.22.21-.37.27-.53,1.11-3.01,2.23-6.02,3.33-9.03.25-.68.2-.78-.54-.91-3.18-.56-6.36-1.1-9.54-1.64-.15-.02-.3,0-.5,0,2.34,4.05,4.64,8.03,6.99,12.11ZM50.03,81.3c-.11.19-.21.34-.27.49-1.11,3.01-2.23,6.01-3.33,9.03-.26.71-.21.8.57.94,2.94.53,5.89,1.04,8.84,1.55.37.06.75.07,1.19.11-2.36-4.09-4.66-8.08-7-12.12ZM50.03,68.59c2.36-4.08,4.65-8.06,6.98-12.09-.22,0-.4-.02-.56,0-3.14.53-6.28,1.07-9.42,1.62-.79.14-.85.24-.57.99,1.09,2.99,2.2,5.98,3.31,8.97.06.16.16.3.27.51Z"/><path class="cls-1" d="M75.03,64.12c6.06.03,10.83,4.87,10.8,10.96-.03,5.88-4.93,10.73-10.83,10.71-6.06-.02-10.84-4.9-10.8-11.04.04-5.84,4.95-10.66,10.83-10.63Z"/></g></svg>