<?xml version="1.0" encoding="UTF-8"?><svg id="Layer_1" xmlns="http://www.w3.org/2000/svg" viewBox="0 0 150 150"><defs><style>.cls-1{fill:#fff;}</style></defs><g id="Js1BCm"><path class="cls-1" d="M116.28,117.05c.5,1.43,1.56,2.42,2.77,3.23,1.72,1.16,3.51,2.21,5.28,3.3,3.57,2.21,6.59,5.03,9.22,8.29.5.62,1.02,1.25,1.63,1.75,1.29,1.05,2.04,2.42,2.66,4.19-.48-.36-.83-.56-1.12-.83-3.57-3.22-7.49-5.91-11.93-7.8-4.12-1.75-7.79-4.21-11.07-7.22-1.63-1.49-2.94-3.28-3.71-5.39-.03-.09-.08-.18-.12-.27-.6-1.28-.44-1.65.92-2.18,5.19-2.01,10.55-3.05,16.13-2.86.47.02.94,0,1.71,0-.41-.57-.63-1.06-1-1.35-1.14-.89-2.34-1.71-3.53-2.53-2.65-1.83-5.28-3.71-8-5.45-1.38-.88-2.89-1.6-4.42-2.18-2.56-.98-5.18-1.85-7.8-2.68-1.98-.63-3.42-1.84-4.34-3.66-1.57-3.12-3.15-6.25-4.65-9.4-1.81-3.79-3.56-7.61-5.29-11.43-.68-1.5-1.15-3.1-1.85-4.59-2.09-4.46-4.76-8.56-7.78-12.44-5.7-7.34-12.57-13.35-20.63-17.98-2.98-1.71-6.06-3.24-9.39-4.11-1.6-.42-3.31-.41-4.98-.57-1.49-.14-3-.15-4.47-.39-.64-.1-1.32-.53-1.81-.99-2.82-2.69-6.3-4.22-9.82-5.65-1.19-.49-2.44-.93-3.71-1.13-2.31-.36-3.73,1.44-2.97,3.65.64,1.85,1.76,3.41,2.95,4.93,2.22,2.83,4.6,5.6,6.03,8.93,1.27,2.95,2.21,6.05,3.23,9.11,1.08,3.26,2.26,6.48,4.23,9.32.61.88,1.33,1.69,2.11,2.42,1.48,1.38,1.93,2.99,1.32,4.9-.48,1.5-.96,3-1.52,4.47-1.68,4.47-2.05,9.1-1.74,13.81.25,3.91,1.14,7.66,2.86,11.19.63,1.29,1.32,2.54,2.65,3.27,1.1.61,1.37.46,1.52-.77.28-2.31.54-4.62.89-6.92.45-2.95,1.49-5.65,3.55-7.88.56-.6,1.04-1.27,1.64-2.02.21.36.43.63.53.93,1.38,4.31,3.36,8.34,5.48,12.31,2.56,4.77,5.4,9.37,8.8,13.58,1.31,1.62,2.92,3,4.4,4.49.19.19.44.33.66.49l-.18.25c-.24-.13-.49-.23-.71-.38-.41-.28-.83-.57-1.2-.9-2.82-2.51-5.72-4.94-8.41-7.58-1.95-1.92-3.81-3.99-5.37-6.24-1.34-1.93-2.2-4.2-3.27-6.32-.15-.31-.32-.61-.59-1.12-.15.47-.26.73-.3,1-.39,2.37-.76,4.74-1.17,7.1-.1.56-.25,1.12-.45,1.66-.99,2.74-4.09,3.88-6.65,2.46-2.16-1.2-3.54-3.14-4.72-5.22-1.9-3.36-2.85-7.03-3.31-10.83-.58-4.81-.32-9.58.91-14.29.46-1.76.87-3.54,1.34-5.3.15-.55.29-1.15.6-1.61.58-.84.26-1.51-.3-2.07-3.11-3.11-4.83-7.02-6.32-11.04-1.18-3.18-2.06-6.48-3.28-9.65-.62-1.61-1.58-3.12-2.57-4.54-1.71-2.44-3.6-4.74-5.34-7.16-1.13-1.58-1.95-3.33-2.13-5.3-.38-4.39,2.97-7.67,7.45-7.33,3.71.28,7.01,1.74,10.23,3.44,1.82.96,3.53,2.08,5.04,3.5.71.67,1.52,1.04,2.56,1.03,4.4-.05,8.67.78,12.74,2.41,1.96.78,3.81,1.88,5.61,2.98,6.3,3.85,12.13,8.31,17.24,13.67,4.64,4.88,8.66,10.24,11.9,16.15,1.28,2.33,2.09,4.92,3.21,7.35,2.52,5.45,5.08,10.87,7.65,16.29.67,1.42,1.43,2.8,2.18,4.18.42.78,1.1,1.27,1.94,1.57,7.26,2.6,13.75,6.55,19.66,11.46,1.69,1.4,3.38,2.82,4.95,4.35,1.05,1.03,1.88,2.27,2.79,3.43.42.54.3.86-.35,1.09-3.08,1.12-6.31,1.48-9.54,1.89-.91.12-1.8.39-2.7.61-1.55.37-3.1.76-4.69,1.15Z"/><path class="cls-1" d="M46.73,48.27c-.91-2.77-2.55-5.02-4.47-7.1,1.94-1.06,4.43-.37,5.5,1.41,1.29,2.15.96,4.35-1.03,5.7Z"/></g></svg>