<?xml version="1.0" encoding="UTF-8"?><svg id="Layer_1" xmlns="http://www.w3.org/2000/svg" viewBox="0 0 150 150"><defs><style>.cls-1{fill:#fff;}</style></defs><path class="cls-1" d="M130.3,75.14c0,7.24-.03,14.49,0,21.73.04,6.6-2.73,11.55-8.45,14.85-12.76,7.36-25.52,14.72-38.27,22.09-5.78,3.34-11.5,3.33-17.3-.06-12.58-7.34-25.19-14.63-37.83-21.86-5.92-3.39-8.77-8.41-8.75-15.19.04-14.49.05-28.98.06-43.47,0-6.75,2.79-11.81,8.74-15.2,12.66-7.21,25.26-14.51,37.86-21.83,5.89-3.42,11.64-3.32,17.52.1,12.38,7.2,24.77,14.36,37.25,21.39,6.21,3.5,9.22,8.61,9.15,15.71-.07,7.24-.02,14.49-.02,21.73h.04ZM102.88,86.77c1.31,0,2.38.04,3.44,0,2.55-.12,4.18-1.64,4.23-3.9.05-2.33-1.64-3.93-4.33-4.06-1.11-.05-2.23-.1-3.38-.16v-7.49c3.13-.47,7.57.79,7.62-4.13.05-5.12-4.62-3.66-7.68-4.28-.24-3.25.77-7.44-3.96-7.56-5.13-.12-3.79,4.49-4.35,7.54h-7.47c-.28-3.26.74-7.45-4.01-7.56-5.12-.11-3.8,4.49-4.38,7.78-1.27,0-2.4-.05-3.53.01-2.51.13-4.11,1.73-4.12,4.02,0,2.27,1.61,3.84,4.14,4,1.19.08,2.39.12,3.57.18v7.62c-1.31,0-2.45-.05-3.58.01-2.51.13-4.12,1.73-4.12,4.01,0,2.27,1.63,3.82,4.17,3.97,1.19.07,2.38.12,3.73.18,0,1.37-.04,2.44,0,3.5.12,2.54,1.66,4.17,3.93,4.2,2.26.04,3.86-1.59,4.03-4.1.08-1.19.12-2.39.18-3.62h7.49c.47,3.14-.79,7.58,4.14,7.6,4.97.02,3.7-4.43,4.22-7.77ZM39.3,74.85s.03,0,.04,0c0,2.96-.13,5.94.03,8.89.33,6.22,5.77,11.08,12.11,10.96,6.19-.11,11.47-5.17,11.68-11.19.09-2.67-1.34-4.5-3.68-4.7-2.21-.19-3.85,1.25-4.34,3.79-.51,2.71-2.01,4.18-4.11,4.04-2.25-.15-3.64-1.89-3.65-4.73-.03-4.61-.02-9.22.01-13.83.02-2.93,1.27-4.65,3.48-4.9,2.15-.25,3.7,1.26,4.26,4.14.48,2.45,2.24,3.89,4.46,3.65,2.14-.23,3.53-1.9,3.57-4.31,0-.57-.02-1.16-.12-1.72-1.05-6.14-6.46-10.31-12.82-9.9-6.02.39-10.81,5.48-10.92,11.65-.05,2.72,0,5.43,0,8.15Z"/><path class="cls-1" d="M86.9,71.08h7.55v7.67c-2.14,0-4.32.06-6.48-.06-.38-.02-.99-.82-1.02-1.28-.11-2.02-.05-4.05-.05-6.33Z"/></svg>