<?xml version="1.0" encoding="UTF-8"?><svg id="Layer_1" xmlns="http://www.w3.org/2000/svg" viewBox="0 0 150 150"><defs><style>.cls-1{fill:#fff;}</style></defs><g id="Group_14"><path id="Path_397" class="cls-1" d="M78.78,102.93v3.74h26.38c0,5.01.21,9.76-.12,14.48-.1,1.51-1.43,3.09-2.55,4.32-1.04,1.13-2.32,2.01-3.75,2.55-13.07,4.78-26.22,5.02-39.16-.24-5.08-2.07-7.72-6.16-7.51-12.03.26-7.26.06-14.54.06-21.81.01-10.32,5.3-15.65,15.74-15.76,7.65-.07,15.31-.02,22.96-.02,13.02,0,18.08-5.04,18.08-18.02v-10.26c11.73-1.56,19.04-.54,23.08,12.56,2.73,8.85,2.79,18.3.16,27.18-2.67,9.28-8.28,13.32-17.86,13.31-10.71-.01-21.43-.01-32.14,0h-3.38M98.66,118.21c-.01-2.61-2.1-4.73-4.71-4.79-2.62-.07-4.81,2-4.88,4.62-.07,2.62,2,4.81,4.62,4.88.06,0,.12,0,.18,0,2.61-.02,4.73-2.11,4.78-4.71"/><path id="Path_398" class="cls-1" d="M48.5,103.63c-3.79,0-7.15.3-10.44-.07-5.44-.62-8.92-4.12-11.14-8.89-3.64-7.81-3.95-16.13-2.95-24.47.45-3.79,1.48-7.48,3.06-10.96,2.8-6.07,7.8-9.13,14.68-9.06,11.29.1,22.58.03,33.87.03h3.01v-3.79h-26.35c0-5-.51-9.81.22-14.44.35-2.23,2.67-4.71,4.76-5.99,2.9-1.66,6.06-2.78,9.36-3.32,8.66-1.76,17.62-1.51,26.17.71,2.92.87,5.69,2.19,8.19,3.93,2.92,1.98,4.59,5.35,4.38,8.88-.08,7.75-.02,15.5-.04,23.25-.03,9.95-5.4,15.37-15.47,15.47-8.42.08-16.84,0-25.26.03-10.17.03-15.79,5.53-16.04,15.74-.1,4.2-.02,8.4-.02,12.94M68.35,34.93c0-2.61-2.12-4.73-4.73-4.74-2.61-.03-4.77,2.01-4.88,4.62-.03,2.67,2.1,4.86,4.77,4.89.04,0,.09,0,.13,0,2.61-.03,4.71-2.16,4.7-4.77"/></g></svg>