<?xml version="1.0" encoding="UTF-8"?><svg id="Layer_1" xmlns="http://www.w3.org/2000/svg" viewBox="0 0 150 150"><defs><style>.cls-1{fill:#fff;}</style></defs><g id="Yc5Fzm"><path class="cls-1" d="M63.25,40.69c-9.02,10.66-17.79,21.04-26.8,31.69,1.35,0,2.37,0,3.38,0,13.32,0,26.64-.01,39.96,0,.79,0,1.22-.21,1.59-.93,6.12-12.1,12.28-24.18,18.42-36.26.17-.34.32-.69.59-1.29-12.4,2.27-24.61,4.5-37,6.76.16-.53.23-.88.37-1.22,1.25-3.15,2.57-6.27,3.76-9.45.57-1.53,1.53-2.33,3.11-2.7,10.59-2.53,21.17-5.13,31.76-7.71,3.37-.82,6.75-1.65,10.12-2.47,2.09-.51,3.15.08,3.86,2.11,4.78,13.68,9.55,27.37,14.35,41.04.43,1.23.37,2.29-.31,3.42-2.33,3.85-4.61,7.74-7.04,11.84-4.2-12.18-8.32-24.14-12.53-36.35-1.37,2.71-2.63,5.19-3.87,7.67-4.99,9.93-9.97,19.86-14.97,29.79-.3.6-.49,1.06-.04,1.75,7.12,10.89,14.2,21.8,21.29,32.7.07.1.16.2.39.49,3.25-12.02,6.44-23.86,9.69-35.88.31.34.54.55.72.81,2.09,3.04,4.15,6.11,6.27,9.13.67.96.84,1.93.6,3.04-3.06,13.95-6.11,27.9-9.17,41.86-.45,2.07-1.53,2.79-3.64,2.43-9.6-1.65-19.2-3.31-28.8-4.97-5.33-.92-10.65-1.86-15.99-2.73-1.5-.24-2.49-.91-3.05-2.37-1.25-3.29-2.6-6.53-3.91-9.8-.12-.31-.2-.63-.36-1.14,12.65,1.9,25.16,3.77,37.92,5.68-.36-.59-.56-.95-.79-1.3-7.18-10.8-14.36-21.59-21.52-32.41-.44-.67-.86-1.01-1.73-1.01-14.01.03-28.01.02-42.02.03-.32,0-.65.04-1.25.08,9.79,9.66,19.4,19.13,29.2,28.79-.61.06-.97.12-1.33.12-4.34,0-8.68-.02-13.02.02-1.19.01-2.12-.35-2.99-1.19-10.74-10.28-21.51-20.53-32.26-30.79-1.72-1.64-1.76-2.91-.16-4.64,10.17-11.02,20.35-22.03,30.49-33.07,1.05-1.14,2.14-1.65,3.7-1.62,3.82.09,7.65.03,11.47.03.41,0,.83,0,1.56,0Z"/></g></svg>